<svg xmlns="http://www.w3.org/2000/svg" width="17.461" height="17.463" viewBox="0 0 17.461 17.463"><defs><style>.a{fill:#093959;}</style></defs><g transform="translate(-0.006)"><path class="a" d="M176.792,161.263,179,162.969l.031.018.014.008a.506.506,0,0,0,.613-.136l.015-.014,2.71-3.206a.368.368,0,1,0-.544-.484l-2.533,2.706-1.956-1.362a.479.479,0,0,0-.56.765Z" transform="translate(-170.609 -153.577)"/><path class="a" d="M61.257,246.105a3.267,3.267,0,0,1,.015-.349H59.884c-.008.115-.011.232-.011.349s0,.235.011.35h1.388A3.273,3.273,0,0,1,61.257,246.105Z" transform="translate(-57.826 -237.374)"/><path class="a" d="M151.383,83.515c.131-.083.265-.161.4-.231l.053-.026-.692-1.2a5.35,5.35,0,0,0-.505.29l.692,1.2Z" transform="translate(-145.497 -79.258)"/><path class="a" d="M82.071,151.14l1.2.692.291-.5-1.2-.692A5.366,5.366,0,0,0,82.071,151.14Z" transform="translate(-79.267 -145.497)"/><path class="a" d="M386.394,326.259c-.072.136-.148.27-.233.4l-.035.051,1.2.692c.106-.164.2-.329.293-.5l-1.2-.694Z" transform="translate(-372.952 -315.078)"/><path class="a" d="M83.3,326.258l-.028-.053-1.2.692a4.981,4.981,0,0,0,.29.5l1.2-.692-.035-.051A4.358,4.358,0,0,1,83.3,326.258Z" transform="translate(-79.267 -315.079)"/><path class="a" d="M151.383,386.147l-.051-.035-.692,1.2a5.463,5.463,0,0,0,.505.293l.692-1.2-.053-.026A4.4,4.4,0,0,1,151.383,386.147Z" transform="translate(-145.497 -372.943)"/><path class="a" d="M326.214,83.257l.505.293.692-1.2a5.376,5.376,0,0,0-.5-.29Z" transform="translate(-315.083 -79.259)"/><path class="a" d="M245.771,410.712V412.1c.115.01.232.013.349.013s.234,0,.349-.013v-1.4h-.7Z" transform="translate(-237.384 -396.69)"/><path class="a" d="M246.469,61.267V59.881c-.115-.01-.232-.013-.349-.013s-.234,0-.349.013v1.4h.7Z" transform="translate(-237.384 -57.826)"/><path class="a" d="M326.214,386.406l.695,1.2c.172-.09.339-.187.5-.293l-.692-1.2Z" transform="translate(-315.083 -372.942)"/><path class="a" d="M387.621,151.14a5.442,5.442,0,0,0-.293-.5l-1.2.692.293.5Z" transform="translate(-372.952 -145.497)"/><path class="a" d="M412.115,245.757h-1.4v.7h1.4c.009-.115.011-.232.011-.35S412.124,245.872,412.115,245.757Z" transform="translate(-396.7 -237.375)"/><path class="a" d="M8.736,0a8.731,8.731,0,1,0,8.731,8.731A8.731,8.731,0,0,0,8.736,0Zm0,16.336a7.6,7.6,0,1,1,5.377-2.227A7.577,7.577,0,0,1,8.736,16.336Z"/></g></svg>