<svg xmlns="http://www.w3.org/2000/svg" width="40" height="40" viewBox="0 0 40 40"><defs><style>.a{fill:#093959;}</style></defs><path class="a" d="M35.714,32H4.286A4.286,4.286,0,0,0,0,36.286V67.714A4.286,4.286,0,0,0,4.286,72H16.54V58.4H10.915V52H16.54V47.121c0-5.549,3.3-8.614,8.363-8.614a34.077,34.077,0,0,1,4.957.432v5.446H27.069c-2.751,0-3.609,1.707-3.609,3.458V52H29.6l-.982,6.4H23.46V72H35.714A4.286,4.286,0,0,0,40,67.714V36.286A4.286,4.286,0,0,0,35.714,32Z" transform="translate(0 -32)"/></svg>