<svg xmlns="http://www.w3.org/2000/svg" width="44.903" height="38.573" viewBox="0 0 44.903 38.573"><defs><style>.a{fill:#fff;}.b{fill:#ff4893;}.c{fill:#ffb578;}.d{fill:#5fceff;}.e{fill:#4f46a3;}</style></defs><g transform="matrix(0.985, 0.174, -0.174, 0.985, 5.664, -0.277)"><path class="a" d="M46.165,549.12l3.648,4.015v4.117l-1.271,2.338-6.3-3.456" transform="translate(-11.346 -531.079)"/><path class="b" d="M59.548,313.057l-1.6,2.765,35.349,20.3,1.606-2.765-7.2-4.133L63.937,315.578Z" transform="translate(-57.054 -304.389)"/><path class="c" d="M805.455,178.806l4.365,2.521a8.267,8.267,0,0,0,.109-8.072A20.519,20.519,0,0,0,805.455,178.806Z" transform="translate(-802.971 -170.492)"/><path class="d" d="M173.609,135.968l23.631,13.645.08-.14,2.486-4.3-9.562-14.549a5.671,5.671,0,0,1-4.447,2.154c-.094,0-.188,0-.283-.006a5.679,5.679,0,0,1-5.4-5.95l-.028-.249c-1.93-1.113-4.2-.466-6.37,1.327a8.267,8.267,0,0,1-.109,8.072Z" transform="translate(-166.655 -125.133)"/><path class="c" d="M134.124,163.27l9.562,14.549,1.568-2.715-9.91-15.083a5.651,5.651,0,0,1-1.22,3.25Z" transform="translate(-110.436 -157.783)"/><path class="e" d="M8.454,112.982a.892.892,0,0,0,.774-.45,19.813,19.813,0,0,1,4.293-5.373c1.42-1.178,3.506-2.352,5.39-1.258a.89.89,0,0,0,1.22-.329.9.9,0,0,0-.327-1.228c-2.161-1.255-4.8-.749-7.419,1.427a21.6,21.6,0,0,0-4.7,5.862.9.9,0,0,0,0,.9.893.893,0,0,0,.773.45ZM43.8,133.524a.892.892,0,0,0,.774-.45A9.3,9.3,0,0,0,41.2,120.418a.89.89,0,0,0-1.22.33.9.9,0,0,0,.327,1.228,7.491,7.491,0,0,1,2.714,10.2.9.9,0,0,0,0,.9A.892.892,0,0,0,43.8,133.524Z" transform="translate(-5.965 -103.669)"/><path class="e" d="M70.362,154.611a.892.892,0,0,0,.786-.472.9.9,0,0,0-.04-.92l-9.963-15.255a.89.89,0,0,0-1.236-.264.9.9,0,0,0-.262,1.243l0,.007,9.963,15.256A.892.892,0,0,0,70.362,154.611ZM71.8,168.829a.892.892,0,0,0,.774-.449l1.605-2.8a.9.9,0,0,0-.327-1.228L38.508,143.825a.89.89,0,0,0-1.22.329l-1.6,2.8a.9.9,0,0,0,.327,1.228l35.34,20.531a.885.885,0,0,0,.446.121Zm.386-3.367-.712,1.24L37.677,147.07l.711-1.24,33.794,19.632Z" transform="translate(-35.564 -136.209)"/><path class="e" d="M118.317,131.459a6.568,6.568,0,0,0,6.554-6.249.888.888,0,1,0-1.775-.087h0a4.791,4.791,0,0,1-4.779,4.558c-.078,0-.156,0-.236-.005a4.791,4.791,0,0,1-4.557-5.019.888.888,0,1,0-1.775-.087,6.568,6.568,0,0,0,6.242,6.881c.095.005.2.008.326.008Zm11.523,16.7a.888.888,0,0,0,.77-.444l4.053-7.02a.889.889,0,0,0-1.539-.889l-4.053,7.02a.889.889,0,0,0,.769,1.333Z" transform="translate(-99.076 -122.929)"/><path class="e" d="M178.313,169.924a.889.889,0,0,0,.742-1.377L169.492,154a.889.889,0,0,0-1.485.976l9.562,14.549a.887.887,0,0,0,.743.4Zm-26.2-9.2a.888.888,0,0,0,.771-.445,9.106,9.106,0,0,0,.121-8.939.889.889,0,1,0-1.563.845,7.341,7.341,0,0,1-.1,7.206.889.889,0,0,0,.769,1.333ZM166,168.372a.885.885,0,0,0,.339-.067l5.712-2.36a.889.889,0,1,0-.679-1.643l-5.712,2.36a.888.888,0,0,0,.34,1.71Zm-3.174-2.158a.885.885,0,0,0,.339-.067l5.712-2.36a.889.889,0,1,0-.679-1.643l-5.712,2.36a.889.889,0,0,0,.34,1.71Zm-3.554-1.777a.885.885,0,0,0,.339-.067l5.712-2.36a.889.889,0,0,0-.679-1.643l-5.712,2.36a.889.889,0,0,0,.34,1.71Z" transform="translate(-145.061 -148.999)"/></g></svg>