<svg xmlns="http://www.w3.org/2000/svg" width="40" height="39.991" viewBox="0 0 40 39.991"><defs><style>.a{fill:#093959;}</style></defs><path class="a" d="M19.929,41.567A10.253,10.253,0,1,0,30.183,51.821,10.237,10.237,0,0,0,19.929,41.567Zm0,16.919A6.666,6.666,0,1,1,26.6,51.821,6.678,6.678,0,0,1,19.929,58.486ZM32.994,41.148A2.392,2.392,0,1,1,30.6,38.756,2.386,2.386,0,0,1,32.994,41.148Zm6.791,2.427c-.152-3.2-.883-6.041-3.23-8.379s-5.176-3.07-8.379-3.23c-3.3-.187-13.2-.187-16.5,0-3.195.152-6.032.883-8.379,3.221S.226,40.363.066,43.566c-.187,3.3-.187,13.2,0,16.5.152,3.2.883,6.041,3.23,8.379s5.176,3.07,8.379,3.23c3.3.187,13.2.187,16.5,0,3.2-.152,6.041-.883,8.379-3.23s3.07-5.176,3.23-8.379C39.972,56.764,39.972,46.877,39.784,43.575ZM35.519,63.609a6.749,6.749,0,0,1-3.8,3.8c-2.632,1.044-8.879.8-11.788.8s-9.165.232-11.788-.8a6.749,6.749,0,0,1-3.8-3.8c-1.044-2.632-.8-8.879-.8-11.788s-.232-9.165.8-11.788a6.749,6.749,0,0,1,3.8-3.8c2.632-1.044,8.879-.8,11.788-.8s9.165-.232,11.788.8a6.749,6.749,0,0,1,3.8,3.8c1.044,2.632.8,8.879.8,11.788S36.563,60.985,35.519,63.609Z" transform="translate(0.075 -31.825)"/></svg>