<svg xmlns="http://www.w3.org/2000/svg" width="10.465" height="11.107" viewBox="0 0 10.465 11.107">
  <g id="remove-rubbish-svgrepo-com" transform="translate(-14.812)">
    <g id="Group_2" data-name="Group 2" transform="translate(14.812)">
      <g id="Group_1" data-name="Group 1">
        <path id="Path_5" data-name="Path 5" d="M114.707,213.352a.522.522,0,0,0,1.037-.13l-.48-3.821a.522.522,0,0,0-1.037.13Zm-.1-3.993a.173.173,0,0,1,.116-.066h.022a.174.174,0,0,1,.172.153l.48,3.821a.174.174,0,0,1-.151.195h-.022a.174.174,0,0,1-.172-.152l-.48-3.821A.173.173,0,0,1,114.607,209.359Z" transform="translate(-112.066 -204.411)" fill="#edf3f8"/>
        <path id="Path_6" data-name="Path 6" d="M24.622,1.516H22.489V1.443A1.445,1.445,0,0,0,21.046,0h-2A1.445,1.445,0,0,0,17.6,1.443v.073H15.467a.656.656,0,0,0-.655.655v.944a.656.656,0,0,0,.655.655H15.6l.815,6.475a.987.987,0,0,0,.977.862H22.7a.987.987,0,0,0,.977-.862l.815-6.475h.129a.656.656,0,0,0,.655-.655V2.171A.656.656,0,0,0,24.622,1.516Zm-6.674-.073h0a1.1,1.1,0,0,1,1.1-1.1h2a1.1,1.1,0,0,1,1.1,1.1v.073h-.358V1.443a.738.738,0,0,0-.737-.737h-2a.738.738,0,0,0-.737.737v.073h-.358Zm3.487,0v.073h-2.78V1.443a.389.389,0,0,1,.388-.388h2A.389.389,0,0,1,21.434,1.443Zm1.9,8.759a.638.638,0,0,1-.631.557H17.388a.638.638,0,0,1-.631-.557L15.947,3.77h8.194Zm1.6-7.087a.307.307,0,0,1-.307.307H15.467a.307.307,0,0,1-.307-.307V2.171a.307.307,0,0,1,.307-.307h9.155a.307.307,0,0,1,.307.307Z" transform="translate(-14.812)" fill="#edf3f8"/>
        <path id="Path_7" data-name="Path 7" d="M232.438,213.815a.523.523,0,0,0,.522-.522v-3.821a.522.522,0,1,0-1.045,0v3.821A.523.523,0,0,0,232.438,213.815Zm-.174-4.344a.174.174,0,1,1,.348,0v3.821a.174.174,0,1,1-.348,0Z" transform="translate(-227.206 -204.416)" fill="#edf3f8"/>
        <path id="Path_8" data-name="Path 8" d="M327.927,213.81a.522.522,0,0,0,.584-.453l.48-3.821a.522.522,0,0,0-1.037-.13l-.48,3.821a.522.522,0,0,0,.453.584Zm-.108-.54.48-3.821a.174.174,0,0,1,.172-.152h.022a.174.174,0,0,1,.151.195l-.48,3.821a.175.175,0,0,1-.195.151.174.174,0,0,1-.151-.195Z" transform="translate(-320.687 -204.415)" fill="#edf3f8"/>
      </g>
    </g>
  </g>
</svg>
