<svg xmlns="http://www.w3.org/2000/svg" width="22.001" height="23.503" viewBox="0 0 22.001 23.503"><defs><style>.a{fill:#093959;}</style></defs><g transform="translate(-0.999 -2)"><path class="a" d="M8,20a2,2,0,1,1,2-2A2,2,0,0,1,8,20Zm0-3a1,1,0,1,0,1,1A1,1,0,0,0,8,17Z" transform="translate(2.005 5.503)"/><path class="a" d="M15,20a2,2,0,1,1,2-2A2,2,0,0,1,15,20Zm0-3a1,1,0,1,0,1,1A1,1,0,0,0,15,17Z" transform="translate(5.151 5.503)"/><path class="a" d="M22.6,5.511a1.706,1.706,0,0,0-1.357-.665H5.253L5.124,4A2.309,2.309,0,0,0,2.959,2H1.653A.684.684,0,0,0,1,2.712a.684.684,0,0,0,.653.712H2.959a.973.973,0,0,1,.876.81L6.017,18.5a2.309,2.309,0,0,0,2.165,2H21.239a.714.714,0,0,0,0-1.423H8.182a.973.973,0,0,1-.876-.81L6.983,16.16,20,14.926a2.525,2.525,0,0,0,2.1-2.119l.876-5.732A2.055,2.055,0,0,0,22.6,5.51Zm-.91,1.334-.876,5.732a1.179,1.179,0,0,1-.928.935L6.767,14.754,5.47,6.269H21.238a.439.439,0,0,1,.36.161.541.541,0,0,1,.086.414Z"/></g></svg>