<svg xmlns="http://www.w3.org/2000/svg" width="20.004" height="20.005" viewBox="0 0 20.004 20.005"><defs><style>.a{fill:#0ac1ef;fill-rule:evenodd;}</style></defs><path class="a" d="M9.307.021a1.25,1.25,0,0,1,1,1.456l-.661,3.59h2.985l.745-4.043a1.25,1.25,0,1,1,2.459.453l-.661,3.59h3.577a1.25,1.25,0,1,1,0,2.5H14.716l-.9,4.869h3.553a1.25,1.25,0,0,1,0,2.5H13.358l-.745,4.043a1.25,1.25,0,1,1-2.459-.453l.661-3.59H7.831l-.745,4.043a1.25,1.25,0,1,1-2.459-.453l.661-3.59H1.25a1.25,1.25,0,0,1,0-2.5h4.5l.9-4.869H3.093a1.25,1.25,0,1,1,0-2.5H7.107l.745-4.043A1.25,1.25,0,0,1,9.307.021ZM9.189,7.568l-.9,4.869h2.985l.9-4.869Z"/></svg>