<svg xmlns="http://www.w3.org/2000/svg" width="60" height="21.593" viewBox="0 0 60 21.593"><defs><style>.a{fill:#093959;fill-rule:evenodd;}</style></defs><g transform="translate(-18.129 -53.78)"><path class="a" d="M30.972,70.011c-3.9,4.585-7.647,10.272-7.685,14.52a5.031,5.031,0,0,0,1.72,4.052,8.345,8.345,0,0,0,5.635,2.062c2.823,0,5.627-1.133,7.822-2.013,3.7-1.479,44.563-19.225,44.563-19.225.395-.2.321-.444-.173-.321-.2.05-44.489,12.052-44.489,12.052a9.787,9.787,0,0,1-2.578.369c-3.4.02-6.433-1.866-6.408-5.851A13.057,13.057,0,0,1,30.97,70.01Z" transform="translate(-5.151 -15.273)"/></g></svg>