<svg xmlns="http://www.w3.org/2000/svg" width="21.52" height="18.963" viewBox="0 0 21.52 18.963">
  <path id="reset" d="M4.867,14.484l-.462.473.474.462.462-.474Zm5.912,2.673,6.615-6.615-.936-.936L9.844,16.221Zm-.936-6.615,6.615,6.615.936-.936L10.78,9.606Zm11.934,2.84a8.159,8.159,0,0,1-8.159,8.159v1.323A9.482,9.482,0,0,0,23.1,13.382Zm-16.317,0a8.159,8.159,0,0,1,8.159-8.159V3.9a9.482,9.482,0,0,0-9.482,9.482Zm8.159-8.159a8.159,8.159,0,0,1,8.159,8.159H23.1A9.482,9.482,0,0,0,13.619,3.9ZM5.524,14.4a8.249,8.249,0,0,1-.063-1.021H4.138a9.568,9.568,0,0,0,.073,1.184Zm8.1,7.138a8.149,8.149,0,0,1-6.747-3.57l-1.093.745a9.473,9.473,0,0,0,7.84,4.148ZM5.341,14.946,8.029,12.19l-.947-.924L4.394,14.022Zm-.012-.935L2.5,11.254l-.924.947,2.825,2.756Z" transform="translate(-1.581 -3.9)" fill="#093959"/>
</svg>
