<svg xmlns="http://www.w3.org/2000/svg" width="13" height="12.9" viewBox="0 0 13 12.9"><defs><style>.a{fill:#edf3f8;fill-rule:evenodd;}</style></defs><g transform="translate(-1.25 -1.327)"><g transform="translate(1.25 1.327)"><path class="a" d="M9.2,2.444A1.725,1.725,0,0,0,7.747,1.327,1.734,1.734,0,0,0,6.291,2.443L5.227,4.572l0,0A.753.753,0,0,1,5,4.818a.769.769,0,0,1-.3.144h0l-1.927.32A1.713,1.713,0,0,0,1.309,6.329a1.715,1.715,0,0,0,.587,1.7l1.5,1.5a.756.756,0,0,1,.167.315.777.777,0,0,1,.026.358h0L3.16,12.059A1.8,1.8,0,0,0,3.592,14a1.808,1.808,0,0,0,1.981-.178l1.8-1.068h0a.777.777,0,0,1,.372-.083.75.75,0,0,1,.365.082l1.808,1.07a1.815,1.815,0,0,0,1.983.18,1.806,1.806,0,0,0,.431-1.942l-.429-1.853h0a.776.776,0,0,1,.026-.358.756.756,0,0,1,.167-.315l1.5-1.5h0a1.709,1.709,0,0,0,.59-1.705,1.718,1.718,0,0,0-1.47-1.046l-1.928-.32" transform="translate(-1.25 -1.327)"/></g></g></svg>