<svg xmlns="http://www.w3.org/2000/svg" width="40" height="28.125" viewBox="0 0 40 28.125"><defs><style>.a{fill:#093959;}</style></defs><path class="a" d="M54.1,68.4a5.026,5.026,0,0,0-3.536-3.559C47.441,64,34.933,64,34.933,64s-12.508,0-15.628.841A5.026,5.026,0,0,0,15.769,68.4c-.836,3.14-.836,9.69-.836,9.69s0,6.551.836,9.69a4.951,4.951,0,0,0,3.536,3.5c3.119.841,15.628.841,15.628.841s12.508,0,15.628-.841a4.951,4.951,0,0,0,3.536-3.5c.836-3.14.836-9.69.836-9.69S54.933,71.54,54.1,68.4ZM30.842,84.038V72.143L41.3,78.091,30.842,84.038Z" transform="translate(-14.933 -64)"/></svg>